<?xml version="1.0" encoding="iso-8859-1"?>
<!-- Generator: Adobe Illustrator 19.0.0, SVG Export Plug-In . SVG Version: 6.00 Build 0)  -->
<svg version="1.1" id="Layer_1" xmlns="http://www.w3.org/2000/svg" xmlns:xlink="http://www.w3.org/1999/xlink" x="0px" y="0px"
	 viewBox="0 0 512.001 512.001" style="enable-background:new 0 0 512.001 512.001;" xml:space="preserve">
<path style="fill:#8AE9ED;" d="M261.604,1.146L9.263,105.669c-3.676,1.522-6.597,4.442-8.117,8.117
	c-1.523,3.676-1.523,7.806-0.001,11.48L105.67,377.607c3.17,7.652,11.945,11.287,19.599,8.117l252.339-104.522
	c7.653-3.17,11.288-11.945,8.118-19.598L281.201,9.263C278.031,1.61,269.257-2.025,261.604,1.146z"/>
<path style="fill:#1CDAE3;" d="M261.604,1.146l-126.17,52.261l116.003,280.056l126.17-52.261c7.653-3.17,11.288-11.945,8.118-19.598
	L281.201,9.263C278.031,1.61,269.257-2.025,261.604,1.146z"/>
<g>
	<path style="fill:#CAF9FF;" d="M245.507,214.188c-7.654,3.17-16.429-0.465-19.6-8.118l-18.853-45.515l-45.515,18.854
		c-7.653,3.17-16.428-0.465-19.598-8.118c-3.17-7.653,0.464-16.429,8.117-19.599l59.373-24.593
		c7.653-3.171,16.429,0.464,19.599,8.117l24.593,59.373C256.795,202.243,253.159,211.017,245.507,214.188z"/>
	<path style="fill:#CAF9FF;" d="M496.997,208.869H223.866c-3.979,0-7.794,1.58-10.606,4.394c-2.814,2.813-4.394,6.628-4.394,10.606
		l0.002,273.132c0,8.284,6.716,15,15,15h273.129c8.284,0,15-6.716,15-15V223.869C511.997,215.584,505.281,208.869,496.997,208.869z"
		/>
</g>
<path style="fill:#8AE9ED;" d="M496.997,208.869H360.432v303.132h136.565c8.284,0,15-6.716,15-15V223.869
	C511.997,215.584,505.281,208.869,496.997,208.869z"/>
<path style="fill:#1CDAE3;" d="M400.599,399.535c-8.284,0-15-6.716-15-15V335.27h-49.265c-8.284,0-15-6.716-15-15
	c0-8.284,6.716-15,15-15h64.265c8.284,0,15,6.716,15,15v64.265C415.599,392.819,408.883,399.535,400.599,399.535z"/>
<g>
</g>
<g>
</g>
<g>
</g>
<g>
</g>
<g>
</g>
<g>
</g>
<g>
</g>
<g>
</g>
<g>
</g>
<g>
</g>
<g>
</g>
<g>
</g>
<g>
</g>
<g>
</g>
<g>
</g>
</svg>
