<?xml version="1.0" encoding="iso-8859-1"?>
<!-- Generator: Adobe Illustrator 19.0.0, SVG Export Plug-In . SVG Version: 6.00 Build 0)  -->
<svg version="1.1" id="Layer_1" xmlns="http://www.w3.org/2000/svg" xmlns:xlink="http://www.w3.org/1999/xlink" x="0px" y="0px"
	 viewBox="0 0 512 512" style="enable-background:new 0 0 512 512;" xml:space="preserve">
<path style="fill:#39A3DB;" d="M400.608,512H111.391c-14.37,0-26.02-11.649-26.02-26.02V170.741h341.258V485.98
	C426.628,500.349,414.979,512,400.608,512z"/>
<path style="fill:#4881C2;" d="M255.995,170.741V512h144.613c14.371,0,26.02-11.649,26.02-26.02V170.741H255.995z"/>
<path style="fill:#FFDA79;" d="M426.628,309.515H333.69c-12.549-30.571-42.598-52.109-77.692-52.109s-65.143,21.537-77.692,52.109
	H85.37v67.653h94.671c13.438,28.465,42.392,48.167,75.958,48.167s62.52-19.703,75.958-48.167h94.671V309.515z"/>
<path style="fill:#23B898;" d="M174.658,191.947c-9.687,0-18.432-6.682-20.659-16.528L120.173,25.883
	c-2.584-11.42,4.581-22.772,16.001-25.356c11.419-2.584,22.772,4.581,25.356,16.001l33.825,149.536
	c2.584,11.42-4.581,22.772-16.001,25.356C177.78,191.776,176.205,191.947,174.658,191.947z"/>
<path style="fill:#4881C2;" d="M475.934,191.941H36.064c-11.708,0-21.201-9.492-21.201-21.201c0-11.708,9.492-21.201,21.201-21.201
	h439.871c11.708,0,21.201,9.492,21.201,21.201C497.135,182.45,487.644,191.941,475.934,191.941z"/>
<path style="fill:#FFC72D;" d="M333.691,309.515c-12.549-30.571-42.598-52.109-77.692-52.109c-0.001,0-0.003,0-0.004,0v167.928
	c0.001,0,0.003,0,0.004,0c33.565,0,62.52-19.703,75.958-48.167h94.671v-67.653L333.691,309.515L333.691,309.515z"/>
<path style="fill:#3E6EA6;" d="M475.934,149.54H255.995v42.401h219.94c11.708,0,21.201-9.492,21.201-21.201
	C497.135,159.032,487.644,149.54,475.934,149.54z"/>
<g>
</g>
<g>
</g>
<g>
</g>
<g>
</g>
<g>
</g>
<g>
</g>
<g>
</g>
<g>
</g>
<g>
</g>
<g>
</g>
<g>
</g>
<g>
</g>
<g>
</g>
<g>
</g>
<g>
</g>
</svg>
